<svg xmlns="http://www.w3.org/2000/svg" width="32" height="33" viewBox="0 0 32 33" fill="none">
  <g clip-path="url(#clip0_305_176)">
    <path d="M11.9364 27.6082C11.9364 28 11.8203 28.3829 11.6027 28.7086C11.385 29.0343 11.0757 29.2881 10.7138 29.438C10.3519 29.5879 9.95371 29.6271 9.56953 29.5507C9.18534 29.4743 8.83244 29.2857 8.55546 29.0087C8.27847 28.7317 8.08985 28.3788 8.01343 27.9946C7.93701 27.6104 7.97623 27.2122 8.12613 26.8503C8.27603 26.4884 8.52988 26.1791 8.85558 25.9615C9.18128 25.7439 9.5642 25.6277 9.95591 25.6277C10.4812 25.6277 10.9849 25.8364 11.3564 26.2078C11.7278 26.5792 11.9364 27.083 11.9364 27.6082ZM22.8294 25.6277C22.4377 25.6277 22.0548 25.7439 21.7291 25.9615C21.4034 26.1791 21.1495 26.4884 20.9996 26.8503C20.8497 27.2122 20.8105 27.6104 20.8869 27.9946C20.9633 28.3788 21.152 28.7317 21.429 29.0087C21.7059 29.2857 22.0588 29.4743 22.443 29.5507C22.8272 29.6271 23.2254 29.5879 23.5873 29.438C23.9492 29.2881 24.2585 29.0343 24.4762 28.7086C24.6938 28.3829 24.8099 28 24.8099 27.6082C24.8099 27.083 24.6013 26.5792 24.2299 26.2078C23.8584 25.8364 23.3547 25.6277 22.8294 25.6277ZM28.7277 10.0743L25.1961 21.5503C25.0112 22.1586 24.635 22.6912 24.1235 23.0689C23.612 23.4466 22.9924 23.6494 22.3565 23.6472H10.4597C9.81476 23.6448 9.18796 23.4335 8.67315 23.045C8.15834 22.6565 7.78324 22.1116 7.60402 21.4921L3.12553 5.82233H1.04349C0.780856 5.82233 0.528977 5.718 0.343266 5.53229C0.157554 5.34658 0.0532227 5.0947 0.0532227 4.83207C0.0532227 4.56943 0.157554 4.31755 0.343266 4.13184C0.528977 3.94613 0.780856 3.8418 1.04349 3.8418H3.12553C3.55557 3.84322 3.97358 3.98389 4.31699 4.24273C4.6604 4.50157 4.91075 4.86467 5.03056 5.27769L6.03445 8.79314H27.7807C27.9357 8.79308 28.0885 8.8294 28.2269 8.89916C28.3653 8.96892 28.4853 9.07018 28.5775 9.1948C28.6696 9.31942 28.7311 9.46392 28.7572 9.61667C28.7833 9.76943 28.7732 9.92617 28.7277 10.0743ZM26.4402 10.7737H6.60014L9.50781 20.9487C9.56697 21.1555 9.69186 21.3374 9.8636 21.467C10.0353 21.5965 10.2446 21.6666 10.4597 21.6666H22.3565C22.5684 21.6667 22.7748 21.5988 22.9452 21.4729C23.1157 21.347 23.2412 21.1698 23.3035 20.9673L26.4402 10.7737Z" fill="white"/>
  </g>
  <defs>
    <clipPath id="clip0_305_176">
      <rect width="31.6886" height="31.6886" fill="white" transform="translate(0.0532227 0.871094)"/>
    </clipPath>
  </defs>
</svg>