<svg xmlns="http://www.w3.org/2000/svg" width="20" height="20" viewBox="0 0 20 20" fill="none">
  <path d="M8.33339 17.3139C7.60807 17.1494 6.91146 16.8772 6.26673 16.5064M11.6667 2.68555C13.3235 3.06394 14.8028 3.99362 15.8623 5.32239C16.9218 6.65115 17.4988 8.30026 17.4988 9.99971C17.4988 11.6992 16.9218 13.3483 15.8623 14.677C14.8028 16.0058 13.3235 16.9355 11.6667 17.3139M3.81589 14.2439C3.36131 13.5834 3.01606 12.8541 2.79339 12.0839M2.60339 8.74971C2.73673 7.95805 2.99339 7.20805 3.35339 6.52055L3.49423 6.26638M5.75589 3.81555C6.53561 3.2788 7.41033 2.89531 8.33339 2.68555M10.0001 7.49971L8.33339 9.99971H11.6667L10.0001 12.4997" stroke="#A374FF" stroke-width="1.66667" stroke-linecap="round" stroke-linejoin="round"/>
</svg>