<svg xmlns="http://www.w3.org/2000/svg" width="22" height="22" viewBox="0 0 32 32" fill="none">
  <path d="M18 12H14C11.8 12 10 13.8 10 16V20C10 22.2 11.8 24 14 24H18C20.2 24 22 22.2 22 20V16" stroke="#171717" stroke-width="2" stroke-linecap="round" stroke-linejoin="round"/>
  <path d="M16 12V24" stroke="#171717" stroke-width="2" stroke-linecap="round" stroke-linejoin="round"/>
  <path d="M10 18H22" stroke="#171717" stroke-width="2" stroke-linecap="round" stroke-linejoin="round"/>
  <path d="M29.3333 13.9996C29.3333 12.3862 28.2533 10.3196 26.9333 9.39957L18.6933 3.62623C16.8266 2.31957 13.8266 2.38623 12.0266 3.78623L4.83996 9.38623C3.63996 10.3196 2.66663 12.3062 2.66663 13.8129V23.6929C2.66663 26.7862 5.18663 29.3196 8.27996 29.3196H23.72C26.8133 29.3196 29.3333 26.7862 29.3333 23.7062V19.5729" stroke="#171717" stroke-width="2" stroke-linecap="round" stroke-linejoin="round"/>
</svg>