<svg xmlns="http://www.w3.org/2000/svg" width="22" height="22" viewBox="0 0 26 26" fill="none">
  <path d="M19.4999 7.75797C19.4349 7.74714 19.3591 7.74714 19.2941 7.75797C17.7991 7.70381 16.6074 6.47964 16.6074 4.96297C16.6074 3.4138 17.8533 2.16797 19.4024 2.16797C20.9516 2.16797 22.1974 3.42464 22.1974 4.96297C22.1866 6.47964 20.9949 7.70381 19.4999 7.75797Z" stroke="#171717" stroke-width="1.625" stroke-linecap="round" stroke-linejoin="round"/>
  <path d="M18.3841 15.6448C19.8682 15.894 21.5041 15.634 22.6524 14.8648C24.1799 13.8465 24.1799 12.1781 22.6524 11.1598C21.4932 10.3906 19.8357 10.1306 18.3516 10.3906" stroke="#171717" stroke-width="1.625" stroke-linecap="round" stroke-linejoin="round"/>
  <path d="M6.46752 7.75797C6.53252 7.74714 6.60835 7.74714 6.67335 7.75797C8.16835 7.70381 9.36002 6.47964 9.36002 4.96297C9.36002 3.4138 8.11419 2.16797 6.56502 2.16797C5.01585 2.16797 3.77002 3.42464 3.77002 4.96297C3.78085 6.47964 4.97252 7.70381 6.46752 7.75797Z" stroke="#171717" stroke-width="1.625" stroke-linecap="round" stroke-linejoin="round"/>
  <path d="M7.58327 15.6448C6.0991 15.894 4.46327 15.634 3.31494 14.8648C1.78744 13.8465 1.78744 12.1781 3.31494 11.1598C4.4741 10.3906 6.1316 10.1306 7.61577 10.3906" stroke="#171717" stroke-width="1.625" stroke-linecap="round" stroke-linejoin="round"/>
  <path d="M12.9999 15.8498C12.9349 15.8389 12.8591 15.8389 12.7941 15.8498C11.2991 15.7956 10.1074 14.5714 10.1074 13.0548C10.1074 11.5056 11.3533 10.2598 12.9024 10.2598C14.4516 10.2598 15.6974 11.5164 15.6974 13.0548C15.6866 14.5714 14.4949 15.8064 12.9999 15.8498Z" stroke="#171717" stroke-width="1.625" stroke-linecap="round" stroke-linejoin="round"/>
  <path d="M16.1525 19.2636C14.43 18.1153 11.5809 18.1153 9.84753 19.2636C8.32003 20.2819 8.32003 21.9503 9.84753 22.9686C11.5809 24.1278 14.4192 24.1278 16.1525 22.9686" stroke="#171717" stroke-width="1.625" stroke-linecap="round" stroke-linejoin="round"/>
</svg>