<svg xmlns="http://www.w3.org/2000/svg" width="23" height="23" viewBox="0 0 29 29" fill="none">
  <path d="M25.955 14.4392C26.5592 12.7475 25.4717 11.2975 23.6592 11.2975H18.8258C18.1008 11.2975 17.4967 10.6933 17.6175 9.84749L18.2217 5.98082C18.4633 4.89332 17.7383 3.68499 16.6508 3.32249C15.6842 2.95999 14.4758 3.44332 13.9925 4.16833L9.03833 11.5392" stroke="#6B7280" stroke-width="1.8125" stroke-miterlimit="10" stroke-linecap="round" stroke-linejoin="round"/>
  <path d="M9.03833 22.173L12.7842 25.073C13.2675 25.5563 14.355 25.798 15.08 25.798H19.6717C21.1217 25.798 22.6925 24.7105 23.055 23.2605L24.5533 18.7051" stroke="#6B7280" stroke-width="1.8125" stroke-miterlimit="10" stroke-linecap="round" stroke-linejoin="round"/>
  <path d="M2.87585 22.1727V10.331C2.87585 8.63932 3.60085 8.03516 5.29252 8.03516H6.50085C8.19252 8.03516 8.91752 8.63932 8.91752 10.331V22.1727C8.91752 23.8643 8.19252 24.4685 6.50085 24.4685H5.29252C3.60085 24.4685 2.87585 23.8643 2.87585 22.1727Z" stroke="#6B7280" stroke-width="1.8125" stroke-linecap="round" stroke-linejoin="round"/>
</svg>