<svg width="172" height="46" viewBox="0 0 172 46" fill="none" xmlns="http://www.w3.org/2000/svg">
<path d="M27.7083 27.875C24.4854 27.875 21.875 30.4854 21.875 33.7083C21.875 34.8021 22.1812 35.8375 22.7208 36.7125C23.7271 38.4042 25.5792 39.5417 27.7083 39.5417C29.8375 39.5417 31.6896 38.4042 32.6958 36.7125C33.2354 35.8375 33.5417 34.8021 33.5417 33.7083C33.5417 30.4854 30.9313 27.875 27.7083 27.875ZM30.7271 33.0812L27.6208 35.9542C27.4167 36.1438 27.1396 36.2458 26.8771 36.2458C26.6 36.2458 26.3229 36.1438 26.1042 35.925L24.6604 34.4813C24.2375 34.0583 24.2375 33.3583 24.6604 32.9354C25.0833 32.5125 25.7833 32.5125 26.2062 32.9354L26.9063 33.6354L29.2396 31.4771C29.6771 31.0687 30.3771 31.0979 30.7854 31.5354C31.1938 31.9729 31.1646 32.6583 30.7271 33.0812Z" fill="#171717"/>
<path d="M32.0833 17.0111V17.6673C32.0833 18.4694 31.427 19.1257 30.625 19.1257H4.37496C3.57288 19.1257 2.91663 18.4694 2.91663 17.6673V16.9965C2.91663 13.6569 5.61454 10.959 8.95413 10.959H26.0312C29.3708 10.959 32.0833 13.6715 32.0833 17.0111Z" fill="#171717"/>
<path d="M2.91663 22.7717V30.0051C2.91663 33.3447 5.61454 36.0426 8.95413 36.0426H18.0833C18.9291 36.0426 19.6583 35.328 19.5854 34.4822C19.3812 32.2509 20.0958 29.8301 22.0791 27.9051C22.8958 27.103 23.902 26.4905 24.9958 26.1405C26.8187 25.5572 28.5833 25.6301 30.1437 26.1551C31.0916 26.4759 32.0833 25.7905 32.0833 24.7842V22.7572C32.0833 21.9551 31.427 21.2988 30.625 21.2988H4.37496C3.57288 21.3134 2.91663 21.9697 2.91663 22.7717ZM11.6666 31.1572H8.74996C8.15204 31.1572 7.65621 30.6613 7.65621 30.0634C7.65621 29.4655 8.15204 28.9697 8.74996 28.9697H11.6666C12.2645 28.9697 12.7604 29.4655 12.7604 30.0634C12.7604 30.6613 12.2645 31.1572 11.6666 31.1572Z" fill="#171717"/>
<path d="M52.1894 13.084V33.388C52.1894 34.092 52.3334 34.652 52.6214 35.068C52.9414 35.484 53.3574 35.692 53.8694 35.692C54.3814 35.692 54.7814 35.484 55.0694 35.068C55.3894 34.652 55.5494 34.092 55.5494 33.388V25.516H61.8854V27.868C61.8854 29.116 61.6934 30.236 61.3094 31.228C60.9254 32.22 60.3814 33.068 59.6774 33.772C59.0054 34.476 58.1574 35.02 57.1334 35.404C56.1414 35.788 55.0374 35.98 53.8214 35.98C51.3254 35.98 49.3734 35.26 47.9654 33.82C46.5574 32.38 45.8534 30.396 45.8534 27.868V18.652C45.8534 17.404 46.0294 16.284 46.3814 15.292C46.7654 14.268 47.2934 13.42 47.9654 12.748C48.6694 12.044 49.5014 11.5 50.4614 11.116C51.4534 10.732 52.5734 10.54 53.8214 10.54C56.2854 10.54 58.2374 11.276 59.6774 12.748C61.1494 14.188 61.8854 16.156 61.8854 18.652V21.004H55.5494V13.084C55.5494 12.412 55.3894 11.868 55.0694 11.452C54.7814 11.036 54.3814 10.828 53.8694 10.828C53.6454 10.828 53.4214 10.892 53.1974 11.02C52.9734 11.116 52.7974 11.26 52.6694 11.452C52.5414 11.644 52.4294 11.884 52.3334 12.172C52.2374 12.46 52.1894 12.764 52.1894 13.084ZM75.9138 13.084C75.9138 12.412 75.7538 11.868 75.4338 11.452C75.1458 11.036 74.7618 10.828 74.2818 10.828C74.0578 10.828 73.8338 10.892 73.6098 11.02C73.4178 11.116 73.2578 11.26 73.1298 11.452C73.0018 11.644 72.8898 11.884 72.7938 12.172C72.7298 12.46 72.6978 12.764 72.6978 13.084V21.196H66.3138V18.652C66.3138 17.404 66.4898 16.284 66.8418 15.292C67.2258 14.268 67.7538 13.42 68.4258 12.748C69.1298 12.044 69.9618 11.5 70.9218 11.116C71.8818 10.732 72.9858 10.54 74.2338 10.54C76.6658 10.54 78.6018 11.276 80.0418 12.748C81.5138 14.188 82.2498 16.156 82.2498 18.652V35.5H75.9138V32.908H75.8178C75.1458 33.964 74.4098 34.748 73.6098 35.26C72.8098 35.74 71.9298 35.98 70.9698 35.98C69.5618 35.98 68.4098 35.5 67.5138 34.54C66.6498 33.548 66.2178 32.252 66.2178 30.652V27.532C66.2178 26.764 66.3458 26.06 66.6018 25.42C66.8898 24.78 67.2898 24.236 67.8018 23.788C68.3458 23.308 68.9858 22.94 69.7218 22.684C70.4578 22.428 71.2898 22.3 72.2178 22.3H75.9138V13.084ZM75.9138 32.332V22.588H74.8098C74.0738 22.588 73.5138 22.748 73.1298 23.068C72.7458 23.356 72.5538 23.804 72.5538 24.412V32.044C72.5538 32.588 72.6818 33.02 72.9378 33.34C73.2258 33.628 73.5938 33.772 74.0418 33.772C74.4578 33.772 74.8258 33.644 75.1458 33.388C75.4658 33.132 75.7218 32.78 75.9138 32.332ZM92.9662 11.02V18.94H93.0622C93.2542 17.852 93.4622 16.812 93.6862 15.82C93.9422 14.796 94.2622 13.9 94.6462 13.132C95.0622 12.332 95.5582 11.708 96.1342 11.26C96.7102 10.78 97.3822 10.54 98.1502 10.54C98.2462 10.54 98.3422 10.556 98.4382 10.588C98.5342 10.588 98.6462 10.588 98.7742 10.588V16.78C98.5502 16.748 98.3422 16.732 98.1502 16.732C97.9582 16.7 97.7502 16.684 97.5262 16.684C96.7262 16.684 96.0382 16.812 95.4622 17.068C94.9182 17.292 94.4542 17.644 94.0702 18.124C93.6862 18.604 93.3982 19.18 93.2062 19.852C93.0462 20.524 92.9662 21.276 92.9662 22.108V35.5H86.6302V11.02H92.9662ZM109.065 11.02V18.94H109.161C109.353 17.852 109.561 16.812 109.785 15.82C110.041 14.796 110.361 13.9 110.745 13.132C111.161 12.332 111.657 11.708 112.233 11.26C112.809 10.78 113.481 10.54 114.249 10.54C114.345 10.54 114.441 10.556 114.537 10.588C114.633 10.588 114.745 10.588 114.873 10.588V16.78C114.649 16.748 114.441 16.732 114.249 16.732C114.057 16.7 113.849 16.684 113.625 16.684C112.825 16.684 112.137 16.812 111.561 17.068C111.017 17.292 110.553 17.644 110.169 18.124C109.785 18.604 109.497 19.18 109.305 19.852C109.145 20.524 109.065 21.276 109.065 22.108V35.5H102.729V11.02H109.065ZM125.164 11.02V18.94H125.26C125.452 17.852 125.66 16.812 125.884 15.82C126.14 14.796 126.46 13.9 126.844 13.132C127.26 12.332 127.756 11.708 128.332 11.26C128.908 10.78 129.58 10.54 130.348 10.54C130.444 10.54 130.54 10.556 130.636 10.588C130.732 10.588 130.844 10.588 130.972 10.588V16.78C130.748 16.748 130.54 16.732 130.348 16.732C130.156 16.7 129.948 16.684 129.724 16.684C128.924 16.684 128.236 16.812 127.66 17.068C127.116 17.292 126.652 17.644 126.268 18.124C125.884 18.604 125.596 19.18 125.404 19.852C125.244 20.524 125.164 21.276 125.164 22.108V35.5H118.828V11.02H125.164ZM150.77 35.5H144.434V33.244H144.338C143.698 34.044 142.914 34.7 141.986 35.212C141.09 35.724 140.162 35.98 139.202 35.98C138.562 35.98 137.97 35.836 137.426 35.548C136.882 35.26 136.402 34.812 135.986 34.204C135.602 33.596 135.298 32.828 135.074 31.9C134.85 30.94 134.738 29.82 134.738 28.54V16.684C134.738 15.628 134.85 14.716 135.074 13.948C135.33 13.18 135.666 12.556 136.082 12.076C136.53 11.564 137.042 11.18 137.618 10.924C138.226 10.668 138.898 10.54 139.634 10.54C140.594 10.54 141.474 10.748 142.274 11.164C143.106 11.548 143.794 12.108 144.338 12.844H144.434V0.939999H150.77V35.5ZM144.434 32.668V13.42C144.274 13.004 144.034 12.668 143.714 12.412C143.426 12.156 143.074 12.028 142.658 12.028C142.434 12.028 142.226 12.076 142.034 12.172C141.842 12.268 141.666 12.412 141.506 12.604C141.378 12.764 141.266 12.972 141.17 13.228C141.106 13.452 141.074 13.708 141.074 13.996V32.092C141.074 32.7 141.218 33.196 141.506 33.58C141.826 33.964 142.21 34.156 142.658 34.156C142.85 34.156 143.026 34.124 143.186 34.06C143.378 33.964 143.538 33.852 143.666 33.724C143.826 33.596 143.97 33.452 144.098 33.292C144.226 33.1 144.338 32.892 144.434 32.668ZM171.086 19.612H164.702V13.18C164.702 12.412 164.558 11.836 164.27 11.452C164.014 11.036 163.63 10.828 163.118 10.828C162.638 10.828 162.254 11.02 161.966 11.404C161.678 11.756 161.534 12.268 161.534 12.94V18.124C161.534 18.828 161.678 19.356 161.966 19.708C162.254 20.028 162.814 20.332 163.646 20.62L166.718 22.012C168.222 22.652 169.326 23.436 170.03 24.364C170.766 25.26 171.134 26.524 171.134 28.156V28.828C171.134 29.788 170.942 30.7 170.558 31.564C170.206 32.428 169.678 33.196 168.974 33.868C168.27 34.508 167.406 35.02 166.382 35.404C165.39 35.788 164.254 35.98 162.974 35.98C161.694 35.98 160.574 35.788 159.614 35.404C158.654 34.988 157.822 34.428 157.118 33.724C156.446 33.02 155.934 32.204 155.582 31.276C155.262 30.316 155.102 29.276 155.102 28.156V26.86H161.438V33.34C161.438 34.044 161.582 34.604 161.87 35.02C162.158 35.436 162.558 35.644 163.07 35.644C163.326 35.644 163.55 35.596 163.742 35.5C163.966 35.372 164.142 35.228 164.27 35.068C164.398 34.876 164.51 34.652 164.606 34.396C164.702 34.14 164.75 33.868 164.75 33.58V28.492C164.75 27.66 164.59 27.068 164.27 26.716C163.982 26.364 163.374 26.028 162.446 25.708L159.278 24.364C157.838 23.788 156.798 23.036 156.158 22.108C155.518 21.18 155.198 19.916 155.198 18.316V17.692C155.198 16.732 155.358 15.82 155.678 14.956C156.03 14.092 156.542 13.34 157.214 12.7C157.886 12.028 158.702 11.5 159.662 11.116C160.654 10.732 161.79 10.54 163.07 10.54C164.35 10.54 165.486 10.748 166.478 11.164C167.47 11.548 168.302 12.092 168.974 12.796C169.678 13.468 170.206 14.284 170.558 15.244C170.91 16.172 171.086 17.196 171.086 18.316V19.612Z" fill="black"/>
</svg>
