<svg xmlns="http://www.w3.org/2000/svg" width="22" height="22" viewBox="0 0 32 32" fill="none">
  <path d="M2.66669 11.3327C2.66669 6.66602 5.33335 4.66602 9.33335 4.66602H18.6667" stroke="#171717" stroke-width="2" stroke-miterlimit="10" stroke-linecap="round" stroke-linejoin="round"/>
  <path d="M29.3334 14V20.6667C29.3334 25.3333 26.6667 27.3333 22.6667 27.3333H9.33335C5.33335 27.3333 2.66669 25.3333 2.66669 20.6667V17.3067" stroke="#171717" stroke-width="2" stroke-miterlimit="10" stroke-linecap="round" stroke-linejoin="round"/>
  <path d="M9.33331 12L13.5067 15.3333C14.88 16.4267 17.1333 16.4267 18.5067 15.3333L20.08 14.08" stroke="#171717" stroke-width="2" stroke-miterlimit="10" stroke-linecap="round" stroke-linejoin="round"/>
  <path d="M26 10.6667C27.841 10.6667 29.3334 9.17428 29.3334 7.33333C29.3334 5.49238 27.841 4 26 4C24.1591 4 22.6667 5.49238 22.6667 7.33333C22.6667 9.17428 24.1591 10.6667 26 10.6667Z" stroke="#171717" stroke-width="2" stroke-miterlimit="10" stroke-linecap="round" stroke-linejoin="round"/>
</svg>