<svg xmlns="http://www.w3.org/2000/svg" width="22" height="23" viewBox="0 0 22 23" fill="none">
<path d="M19.3513 10.3899L15.6296 13.638L16.7444 18.4738C16.8034 18.7266 16.7866 18.9911 16.696 19.2344C16.6055 19.4777 16.4452 19.6889 16.2353 19.8416C16.0253 19.9943 15.7751 20.0817 15.5157 20.093C15.2564 20.1042 14.9994 20.0387 14.7771 19.9047L10.5594 17.3465L6.35075 19.9047C6.12841 20.0387 5.8715 20.1042 5.61215 20.093C5.3528 20.0817 5.10251 19.9943 4.89257 19.8416C4.68264 19.6889 4.52237 19.4777 4.43181 19.2344C4.34125 18.9911 4.32442 18.7266 4.38341 18.4738L5.49664 13.6429L1.77406 10.3899C1.57717 10.2201 1.43479 9.9959 1.36479 9.74549C1.29479 9.49509 1.30028 9.22959 1.38057 8.98229C1.46086 8.735 1.61237 8.51691 1.81611 8.35538C2.01985 8.19385 2.26675 8.09607 2.52584 8.07429L7.43262 7.6493L9.34796 3.08086C9.44798 2.84115 9.61669 2.63639 9.83285 2.49236C10.049 2.34834 10.3029 2.27148 10.5627 2.27148C10.8224 2.27148 11.0764 2.34834 11.2925 2.49236C11.5087 2.63639 11.6774 2.84115 11.7774 3.08086L13.6985 7.6493L18.6037 8.07429C18.8628 8.09607 19.1097 8.19385 19.3134 8.35538C19.5171 8.51691 19.6687 8.735 19.7489 8.98229C19.8292 9.22959 19.8347 9.49509 19.7647 9.74549C19.6947 9.9959 19.5523 10.2201 19.3554 10.3899H19.3513Z" fill="#363842"/>
</svg>